<svg width="44" height="44" viewBox="0 0 44 44" fill="none" xmlns="http://www.w3.org/2000/svg">
<mask id="mask0_107_715" style="mask-type:alpha" maskUnits="userSpaceOnUse" x="0" y="0" width="44" height="44">
<rect width="44" height="44" fill="#9BD1BB"/>
</mask>
<g mask="url(#mask0_107_715)">
<path d="M11 42.1667C9.47222 42.1667 8.17361 41.6319 7.10417 40.5625C6.03472 39.4931 5.5 38.1944 5.5 36.6667C5.5 35.1389 6.03472 33.8403 7.10417 32.7708C8.17361 31.7014 9.47222 31.1667 11 31.1667C11.4278 31.1667 11.825 31.2125 12.1917 31.3042C12.5583 31.3958 12.9097 31.5181 13.2458 31.6708L15.8583 28.4167C15.0028 27.4694 14.4069 26.4 14.0708 25.2083C13.7347 24.0167 13.6583 22.825 13.8417 21.6333L10.1292 20.3958C9.60972 21.1597 8.95278 21.7708 8.15833 22.2292C7.36389 22.6875 6.47778 22.9167 5.5 22.9167C3.97222 22.9167 2.67361 22.3819 1.60417 21.3125C0.534722 20.2431 0 18.9444 0 17.4167C0 15.8889 0.534722 14.5903 1.60417 13.5208C2.67361 12.4514 3.97222 11.9167 5.5 11.9167C7.02778 11.9167 8.32639 12.4514 9.39583 13.5208C10.4653 14.5903 11 15.8889 11 17.4167V17.7833L14.7125 19.0667C15.3236 17.9667 16.1413 17.0347 17.1655 16.2708C18.1885 15.5069 19.3417 15.0181 20.625 14.8042V10.8167C19.4333 10.4806 18.4476 9.83094 17.6678 8.86783C16.8893 7.90594 16.5 6.78333 16.5 5.5C16.5 3.97222 17.0347 2.67361 18.1042 1.60417C19.1736 0.534722 20.4722 0 22 0C23.5278 0 24.8264 0.534722 25.8958 1.60417C26.9653 2.67361 27.5 3.97222 27.5 5.5C27.5 6.78333 27.1028 7.90594 26.3083 8.86783C25.5139 9.83094 24.5361 10.4806 23.375 10.8167V14.8042C24.6583 15.0181 25.8121 15.5069 26.8363 16.2708C27.8593 17.0347 28.6764 17.9667 29.2875 19.0667L33 17.7833V17.4167C33 15.8889 33.5347 14.5903 34.6042 13.5208C35.6736 12.4514 36.9722 11.9167 38.5 11.9167C40.0278 11.9167 41.3264 12.4514 42.3958 13.5208C43.4653 14.5903 44 15.8889 44 17.4167C44 18.9444 43.4653 20.2431 42.3958 21.3125C41.3264 22.3819 40.0278 22.9167 38.5 22.9167C37.5222 22.9167 36.6288 22.6875 35.8197 22.2292C35.0093 21.7708 34.3597 21.1597 33.8708 20.3958L30.1583 21.6333C30.3417 22.825 30.2653 24.0087 29.9292 25.1845C29.5931 26.3615 28.9972 27.4389 28.1417 28.4167L30.7542 31.625C31.0903 31.4722 31.4417 31.3573 31.8083 31.2803C32.175 31.2046 32.5722 31.1667 33 31.1667C34.5278 31.1667 35.8264 31.7014 36.8958 32.7708C37.9653 33.8403 38.5 35.1389 38.5 36.6667C38.5 38.1944 37.9653 39.4931 36.8958 40.5625C35.8264 41.6319 34.5278 42.1667 33 42.1667C31.4722 42.1667 30.1736 41.6319 29.1042 40.5625C28.0347 39.4931 27.5 38.1944 27.5 36.6667C27.5 36.0556 27.5996 35.4677 27.7988 34.903C27.9968 34.3371 28.2639 33.825 28.6 33.3667L25.9875 30.1125C24.7347 30.8153 23.3982 31.1667 21.978 31.1667C20.5566 31.1667 19.2194 30.8153 17.9667 30.1125L15.4 33.3667C15.7361 33.825 16.0038 34.3371 16.203 34.903C16.401 35.4677 16.5 36.0556 16.5 36.6667C16.5 38.1944 15.9653 39.4931 14.8958 40.5625C13.8264 41.6319 12.5278 42.1667 11 42.1667ZM5.5 19.25C6.01944 19.25 6.45517 19.074 6.80717 18.722C7.15794 18.3712 7.33333 17.9361 7.33333 17.4167C7.33333 16.8972 7.15794 16.4615 6.80717 16.1095C6.45517 15.7587 6.01944 15.5833 5.5 15.5833C4.98056 15.5833 4.54544 15.7587 4.19467 16.1095C3.84267 16.4615 3.66667 16.8972 3.66667 17.4167C3.66667 17.9361 3.84267 18.3712 4.19467 18.722C4.54544 19.074 4.98056 19.25 5.5 19.25ZM11 38.5C11.5194 38.5 11.9552 38.324 12.3072 37.972C12.6579 37.6212 12.8333 37.1861 12.8333 36.6667C12.8333 36.1472 12.6579 35.7121 12.3072 35.3613C11.9552 35.0093 11.5194 34.8333 11 34.8333C10.4806 34.8333 10.0448 35.0093 9.69283 35.3613C9.34206 35.7121 9.16667 36.1472 9.16667 36.6667C9.16667 37.1861 9.34206 37.6212 9.69283 37.972C10.0448 38.324 10.4806 38.5 11 38.5ZM22 7.33333C22.5194 7.33333 22.9552 7.15733 23.3072 6.80533C23.6579 6.45456 23.8333 6.01944 23.8333 5.5C23.8333 4.98056 23.6579 4.54483 23.3072 4.19283C22.9552 3.84206 22.5194 3.66667 22 3.66667C21.4806 3.66667 21.0454 3.84206 20.6947 4.19283C20.3427 4.54483 20.1667 4.98056 20.1667 5.5C20.1667 6.01944 20.3427 6.45456 20.6947 6.80533C21.0454 7.15733 21.4806 7.33333 22 7.33333ZM22 27.5C23.2833 27.5 24.3681 27.0569 25.2542 26.1708C26.1403 25.2847 26.5833 24.2 26.5833 22.9167C26.5833 21.6333 26.1403 20.5486 25.2542 19.6625C24.3681 18.7764 23.2833 18.3333 22 18.3333C20.7167 18.3333 19.6319 18.7764 18.7458 19.6625C17.8597 20.5486 17.4167 21.6333 17.4167 22.9167C17.4167 24.2 17.8597 25.2847 18.7458 26.1708C19.6319 27.0569 20.7167 27.5 22 27.5ZM33 38.5C33.5194 38.5 33.9546 38.324 34.3053 37.972C34.6573 37.6212 34.8333 37.1861 34.8333 36.6667C34.8333 36.1472 34.6573 35.7121 34.3053 35.3613C33.9546 35.0093 33.5194 34.8333 33 34.8333C32.4806 34.8333 32.0454 35.0093 31.6947 35.3613C31.3427 35.7121 31.1667 36.1472 31.1667 36.6667C31.1667 37.1861 31.3427 37.6212 31.6947 37.972C32.0454 38.324 32.4806 38.5 33 38.5ZM38.5 19.25C39.0194 19.25 39.4546 19.074 39.8053 18.722C40.1573 18.3712 40.3333 17.9361 40.3333 17.4167C40.3333 16.8972 40.1573 16.4615 39.8053 16.1095C39.4546 15.7587 39.0194 15.5833 38.5 15.5833C37.9806 15.5833 37.5454 15.7587 37.1947 16.1095C36.8427 16.4615 36.6667 16.8972 36.6667 17.4167C36.6667 17.9361 36.8427 18.3712 37.1947 18.722C37.5454 19.074 37.9806 19.25 38.5 19.25Z" fill="#9BD1BB"/>
</g>
</svg>
